<svg width="500" height="500" xmlns="http://www.w3.org/2000/svg">
  <defs>
    <linearGradient id="bg" x1="0%" y1="0%" x2="100%" y2="100%">
      <stop offset="0%" style="stop-color:#f7f3ed"/>
      <stop offset="100%" style="stop-color:#e8e0d4"/>
    </linearGradient>
  </defs>
  <rect width="500" height="500" fill="url(#bg)"/>
  <!-- Leaf icon -->
  <g transform="translate(250, 170)" fill="none" stroke="#8a7e6b" stroke-width="1.5" stroke-linecap="round" stroke-linejoin="round">
    <path d="M-20,20 C-20,-20 0,-40 30,-40 C30,-40 30,0 0,20 C-10,26 -20,20 -20,20Z" fill="#d4c9b8" opacity="0.4"/>
    <path d="M-20,20 C-5,0 10,-15 30,-40" fill="none"/>
    <path d="M-10,12 C-2,2 5,-5 15,-15" fill="none" opacity="0.6"/>
    <path d="M-5,18 C0,10 8,2 20,-10" fill="none" opacity="0.6"/>
  </g>
  <!-- Brand name -->
  <text x="250" y="250" text-anchor="middle" font-family="Georgia, serif" font-size="22" fill="#6b6152" font-style="italic">Mitti &amp; Bloom</text>
  <!-- Divider -->
  <line x1="190" y1="268" x2="310" y2="268" stroke="#c4b8a5" stroke-width="1"/>
  <!-- Text -->
  <text x="250" y="300" text-anchor="middle" font-family="Georgia, serif" font-size="16" fill="#8a7e6b">Image Coming Soon</text>
  <!-- Tagline -->
  <text x="250" y="340" text-anchor="middle" font-family="Georgia, serif" font-size="12" fill="#b0a692">Where earth meets bloom</text>
</svg>
